<svg xmlns="http://www.w3.org/2000/svg" xmlns:xlink="http://www.w3.org/1999/xlink" viewBox="0,0,256,256" width="50px" height="50px"><g fill="#ffffff" fill-rule="nonzero" stroke="none" stroke-width="1" stroke-linecap="butt" stroke-linejoin="miter" stroke-miterlimit="10" stroke-dasharray="" stroke-dashoffset="0" font-family="none" font-weight="none" font-size="none" text-anchor="none" style="mix-blend-mode: normal"><g transform="scale(5.12,5.12)"><path d="M25,2c-4.541,0 -8.41336,1.90822 -11.01758,4.94531c-2.60422,3.0371 -3.98242,7.13444 -3.98242,11.55469c0,4.42025 1.3782,8.51759 3.98242,11.55469c2.60422,3.0371 6.47658,4.94531 11.01758,4.94531c4.53159,0 8.39594,-1.90161 11,-4.92773v4.92773c0,2.59854 -0.8185,4.76407 -2.45117,6.33984c-1.63267,1.57577 -4.1851,2.66016 -8.04883,2.66016c-7.71569,0 -10.5,-4.06667 -10.5,-8h-4c0,6.06667 5.21569,12 14.5,12c4.63628,0 8.33384,-1.37773 10.82617,-3.7832c2.49233,-2.40548 3.67383,-5.74034 3.67383,-9.2168v-16.5v-15.5h-4v3.92773c-2.60406,-3.02613 -6.46841,-4.92773 -11,-4.92773zM25,6c3.459,0 6.08664,1.33793 7.98242,3.54883c1.89578,2.2109 3.01758,5.36342 3.01758,8.95117c0,3.58775 -1.1218,6.74027 -3.01758,8.95117c-1.89578,2.2109 -4.52342,3.54883 -7.98242,3.54883c-3.459,0 -6.08664,-1.33793 -7.98242,-3.54883c-1.89578,-2.2109 -3.01758,-5.36342 -3.01758,-8.95117c0,-3.58775 1.1218,-6.74027 3.01758,-8.95117c1.89578,-2.2109 4.52342,-3.54883 7.98242,-3.54883z"></path></g></g></svg>